<?xml version="1.0" encoding="utf-8"?>
<!-- Generator: Adobe Illustrator 25.4.1, SVG Export Plug-In . SVG Version: 6.00 Build 0)  -->
<svg version="1.1"
	 id="svg16" inkscape:version="1.1 (c68e22c387, 2021-05-23)" sodipodi:docname="OnlyFans_text.svg" xmlns:cc="http://creativecommons.org/ns#" xmlns:dc="http://purl.org/dc/elements/1.1/" xmlns:inkscape="http://www.inkscape.org/namespaces/inkscape" xmlns:rdf="http://www.w3.org/1999/02/22-rdf-syntax-ns#" xmlns:sodipodi="http://sodipodi.sourceforge.net/DTD/sodipodi-0.dtd" xmlns:svg="http://www.w3.org/2000/svg"
	 xmlns="http://www.w3.org/2000/svg" xmlns:xlink="http://www.w3.org/1999/xlink" x="0px" y="0px" viewBox="0 0 99.3 17.4"
	 style="enable-background:new 0 0 99.3 17.4;" xml:space="preserve">
<style type="text/css">
	.st0{fill:#D7FE9A;}
	.st1{fill:#D7FE9A;}
</style>
<sodipodi:namedview  bordercolor="#666666" borderopacity="1" gridtolerance="10" guidetolerance="10" height="25px" id="namedview18" inkscape:current-layer="g851" inkscape:cx="64.390911" inkscape:cy="2.7400388" inkscape:pagecheckerboard="1" inkscape:pageopacity="0" inkscape:pageshadow="2" inkscape:showpageshadow="false" inkscape:window-height="878" inkscape:window-maximized="1" inkscape:window-width="1600" inkscape:window-x="-8" inkscape:window-y="-8" inkscape:zoom="11.313708" objecttolerance="10" pagecolor="#ffffff" showgrid="false">
	</sodipodi:namedview>
<g id="g851" transform="matrix(0.19488325,0,0,0.19488325,11.238751,-50.963878)">
	<g id="g8237" transform="matrix(0.0661616,0,0,0.0661616,111.09518,270.70812)">
		<g id="_x23_00aeefff" transform="matrix(6.8417029,0,0,6.8417029,-2693.5107,-658.73845)">
			<path id="path11" class="st0" d="M610.1,76c-9.3,1.1-18.6,1.9-27.9,3.2c-2.8,0.2-4.2,3.2-3.9,5.7c0,39,0,78.1,0,117.1
				c-0.1,10.2,3.9,21.7,13.6,26.5c10.9,5.5,24,4.3,35.1,0c-1.9-6.5-3.4-13.1-5.6-19.6c-1.3-3.3-5.4-1.6-8-2.2
				c-2.5-1.1-3.4-4.2-3.3-6.7C610.1,158.7,610.1,117.3,610.1,76z M95.8,83.9c-2.5,0-5.1,0.1-7.6,0.4c-28.7,2.9-54.9,23.5-63.5,51.1
				c-6.6,19.7-4.5,42.2,5.9,60.3c9.1,16.6,25.2,29.1,43.2,34.8c7.2,2.3,14.7,3,22.2,3.4c5.8-19.2,12-38.3,18-57.4
				c0.7-2.3,1.1-4.6,1.7-6.9c-4.9,9.2-16.5,13.9-26.5,10.6c-12.4-3.3-19.4-18.7-13.9-30.2c2.9-7.4,10.3-12.5,18-13.4
				c7.1-0.9,14.3,2,19.2,7.1c4.2,4.8,6.3,11.3,5.8,17.6c7.2-20.4,13-41.9,26.4-59.3C131.2,90.6,113.6,84,95.8,83.9z M383.5,85.7
				c-3.6,0.1-7.2,0.4-10.7,0.9c-12.6,2.1-24.8,7.7-33.4,17.4c-11.2,12.4-16.2,29.3-17.5,45.7c-0.8,15.6,0.4,31.7,6.2,46.3
				c5.5,13.7,16,25.7,29.9,31.2c10.9,5,23.3,5.5,35.1,4.5c17.7-1.7,34.7-11.9,43.4-27.5c10-17.2,12-37.9,10.1-57.4
				c-1.5-17-7.3-34.4-20-46.3C415.2,89.9,399.2,85.5,383.5,85.7z M384,110c6.3-0.1,12.7,1.6,17.3,6.1c7.6,7.1,9.6,18,10.8,27.9
				c1.1,14.5,1.5,29.4-2.4,43.6c-2.3,7.5-6.7,15.3-14.3,18.4c-6.2,2.4-13.3,2.5-19.8,0.7c-7.3-2.4-12.5-9-15-16.1
				c-4.2-11.7-4.4-24.4-4.3-36.7c0.3-10.5,1.3-21.4,6.1-30.9c3-6.1,8.7-10.8,15.3-12.4C379.8,110.2,381.9,110,384,110z M528.1,118.5
				c-5.8,0-11.5,1.2-16.9,3.4c-6.1,3-11.4,7.4-16.1,12.3c-0.4-5.2-3-11.2-8.7-12.2c-7.1-0.6-14.2-0.1-21.2-0.2c0,32.1,0,64.1,0,96.2
				c0.1,2.6-0.3,5.3,0.4,7.8c1,2.1,3.5,3,5.7,3c8.5,0,17.1,0,25.7,0c0-21.6,0-43.1,0-64.7c0-2.6-0.2-5.3,0.3-7.9
				c0.9-3.1,3.3-5.4,5.3-7.7c3.9-4.6,10.6-7.7,16.6-6c3.4,0.9,5.3,4.3,5.8,7.6c0.8,5.3,0.4,10.7,0.5,16.1c0,19.3-0.1,38.6,0.1,57.9
				c-0.1,3,3,4.9,5.7,4.8c8.7,0.1,17.4,0,26,0c0.1-24.9,0-49.9,0-74.8c0-6-0.4-12.2-2.5-17.9c-2.6-7.5-8.8-13.9-16.6-16
				C535,119,531.5,118.5,528.1,118.5z M637.4,121.7c-5,0-9.9,0-14.9,0c9.8,32.4,19.8,64.8,29.7,97.2c0.9,2.8,1.7,6.1,4.4,7.9
				c2.7,2,6.2,1.8,9.4,2c-2.3,4.9-5,10-9.4,13.4c-7,5.9-16.3,7.5-25.1,8.7c1,6,1.7,12,2.8,18c0.4,2.8,3.3,4.5,6,3.9
				c7.5-0.8,15.1-2.3,22.1-5.5c11-4.5,20.4-12.8,26.1-23.2c4.6-7.5,6.8-16.1,9.5-24.4c10.4-32.7,20.8-65.4,31.1-98.1
				c-9.6,0-19.2-0.1-28.9,0.1c-2.6-0.2-4.6,1.9-4.9,4.3c-6.7,27.4-13.3,54.9-20,82.3c-6.2-27.5-12.1-55-18.3-82.5
				c-0.3-2.3-2.3-4.4-4.8-4.1C647.3,121.7,642.3,121.7,637.4,121.7z"/>
		</g>
		<g id="_x23_008ccfff" transform="matrix(6.8417029,0,0,6.8417029,-2693.5107,-658.73845)">
			<path id="path22" class="st1" d="M202.3,84c-12,0.1-24.3,0.5-35.9,3.8c-8.5,2.5-16.2,7.6-21.7,14.5
				c-13.4,17.3-19.3,38.9-26.4,59.3c-0.7,2.8-1.6,5.6-2.7,8.3c-0.6,2.3-1,4.6-1.7,6.9c-6,19.1-12.2,38.2-18,57.4
				c12-0.2,24.1-2.9,34.8-8.6c14.3-7.4,26.1-19.6,32.9-34.3c0.6-0.9,0.8-2.5,2.2-2.4c15.3-1.3,30.7-7.6,41-19.2
				c7.6-8,12.3-18.5,14.9-29.2c-13.6,2.7-28,3.7-41.6,0c15.1-3.1,30-8.7,42-18.5c11.9-9.4,20.2-23,23.6-37.8
				C231.3,84,216.8,84,202.3,84z M747.6,89.2c-2.9-0.1-5.3,2.9-5,5.8c0,44.6,0,89.2,0,133.8c8.9,0,17.8,0,26.7,0
				c2.3,0.1,4.7-0.8,5.8-2.9c0.5-1.6,0.4-3.3,0.5-4.9c0-15.8,0-31.6,0-47.4c10.1,0,20.2,0.1,30.3,0c3.9,0.1,7.3-3.1,7.8-6.9
				c0.7-5.6,1.2-11.2,1.8-16.8c-13.3,0-26.6,0-39.9,0c0-12.3,0-24.7,0-37c13.6-0.1,27.2,0.1,40.8-0.1c3.3,0.1,6.1-2.8,6.7-5.9
				c1.1-5.8,1.7-11.7,2.6-17.5c-25.8,0-51.7,0-77.5,0C748,89.2,747.8,89.2,747.6,89.2z M1014.6,118.2c-1.1,0-2.3,0-3.4,0.1
				c-11.8,0.6-22.5,7.2-30,16.1c-0.5-5-2.6-10.7-7.9-12.3c-7.3-0.9-14.7-0.2-22.1-0.4c0,31.7,0,63.5,0,95.2c0,2.7-0.2,5.3,0.2,8
				c0.5,2.6,3.4,3.8,5.8,3.8c8.6,0.1,17.2,0,25.8,0c0-23.2,0-46.5,0-69.7c-0.3-4.4,3-7.6,5.6-10.6c4.1-4.8,11.1-8,17.3-5.8
				c4.8,2,5.4,8,5.5,12.5c0.2,22.9-0.1,45.9,0.1,68.9c-0.1,3,3,4.9,5.7,4.8c8.7,0.1,17.4,0,26,0c0-25.6,0-51.1,0-76.7
				c0-8.6-1.6-17.9-7.6-24.6C1030.6,121.3,1022.5,118.4,1014.6,118.2z M874.6,118.5c-3.5,0-6.9,0.4-10.2,1.1
				c-9.4,1.7-17.5,7.8-23.1,15.3c-7.9,10.6-11.2,24-11.6,37c-0.2,13.1,1.1,26.7,7,38.7c4,8.8,11.5,16.2,20.7,19.4
				c9.2,3,19.6,2.9,28.3-1.5c5.5-3.1,10.1-7.7,13.9-12.7c2.8,4.7,6.7,8.7,11.6,11.3c4.5,2.6,10.5,2.9,14.7-0.3
				c6.1-3.8,7.1-11.5,10-17.5c-5.4-2.2-8.6-7.6-8.5-13.4c-0.2-24.7,0-49.5-0.1-74.2c-6.4,0-12.7-0.1-19.1,0
				c-5.2-0.2-9.4,4.3-10.5,9.1c-2.1-2.7-4.5-5.2-7.3-7.2C886.1,119.9,880.4,118.5,874.6,118.5z M1104.5,118.5
				c-6.2-0.1-12.5,0.7-18.5,2.3c-8.8,2.7-17.5,7.5-22.3,15.6c-4.6,7.2-4.9,16.4-2.4,24.4c2.7,9,10.5,15.6,18.9,19.3
				c9.5,4.9,20.5,5.8,29.7,11.1c6.2,3.8,4.5,14.2-1.9,16.9c-5.8,1.7-12.1,1.6-18,0.5c-6.2-1.1-11.8-4.3-17.2-7.4
				c-2-1.5-4.6-0.4-6.1,1.3c-4.2,4.5-8.2,9.1-12.2,13.7c14.1,12.9,34.2,17.4,52.8,15.5c11.3-1.4,22.9-5.2,31.1-13.5
				c11.6-12.2,11.2-34.6-2.5-45c-10.6-7.9-23.9-10-35.9-15c-3.3-1.4-7.5-3.3-8.1-7.3c-1.1-4.3,2.3-8.4,6.4-9.3
				c5.5-0.7,11.1-0.2,16.5,0.9c4.8,1,9.2,3.5,13.7,5.2c2.3,0.8,4.3-1.2,5.5-3c2.9-4.4,5.7-8.8,8.6-13.3
				C1131.9,123,1118.2,118.7,1104.5,118.5z M880.9,141.4c7.7,0.1,15.2,6.5,14.8,14.6c-0.1,12.7,0.1,25.4,0,38
				c-0.1,4.8-3.5,8.5-6.7,11.7c-4.7,3.9-12.1,4.3-17.2,0.9c-3.9-2.4-5.8-6.9-7-11.1c-2.1-7.9-2.1-16.3-2.1-24.4
				c0.4-7.4,1.3-15.1,5.1-21.6c1.8-3.1,4.5-5.8,7.9-7C877.3,141.7,879.1,141.3,880.9,141.4z"/>
		</g>
	</g>
</g>
</svg>
